<mxfile host="app.diagrams.net" modified="2021-09-07T08:53:48.471Z" agent="5.0 (Macintosh; Intel Mac OS X 10_15_7) AppleWebKit/537.36 (KHTML, like Gecko) Chrome/92.0.4515.159 Safari/537.36" etag="y-16BBld_0BF1WR3wRs4" version="15.0.6" type="github">
  <diagram id="JYy8qpWYQjiHHaf_0ouh" name="Page-1">
    <mxGraphModel dx="946" dy="621" grid="0" gridSize="10" guides="1" tooltips="1" connect="1" arrows="1" fold="1" page="1" pageScale="1" pageWidth="850" pageHeight="1100" math="0" shadow="0">
      <root>
        <mxCell id="0" />
        <mxCell id="1" parent="0" />
        <mxCell id="G49e3AccV7yoDLofjGXc-14" value="" style="shape=umlLifeline;participant=umlActor;perimeter=lifelinePerimeter;whiteSpace=wrap;html=1;container=1;collapsible=0;recursiveResize=0;verticalAlign=top;spacingTop=36;outlineConnect=0;" parent="1" vertex="1">
          <mxGeometry x="50" y="40" width="20" height="400" as="geometry" />
        </mxCell>
        <mxCell id="G49e3AccV7yoDLofjGXc-15" value="渲染侧" style="shape=umlLifeline;perimeter=lifelinePerimeter;whiteSpace=wrap;html=1;container=1;collapsible=0;recursiveResize=0;outlineConnect=0;" parent="1" vertex="1">
          <mxGeometry x="150" y="40" width="100" height="400" as="geometry" />
        </mxCell>
        <mxCell id="G49e3AccV7yoDLofjGXc-33" value="" style="html=1;points=[];perimeter=orthogonalPerimeter;" parent="G49e3AccV7yoDLofjGXc-15" vertex="1">
          <mxGeometry x="45" y="60" width="10" height="310" as="geometry" />
        </mxCell>
        <mxCell id="G49e3AccV7yoDLofjGXc-41" value="根据动态路由请求页面布局 " style="verticalAlign=bottom;endArrow=block;html=1;" parent="G49e3AccV7yoDLofjGXc-15" edge="1">
          <mxGeometry width="80" relative="1" as="geometry">
            <mxPoint x="60" y="90" as="sourcePoint" />
            <mxPoint x="440" y="90" as="targetPoint" />
          </mxGeometry>
        </mxCell>
        <mxCell id="G49e3AccV7yoDLofjGXc-16" value="组件侧" style="shape=umlLifeline;perimeter=lifelinePerimeter;whiteSpace=wrap;html=1;container=1;collapsible=0;recursiveResize=0;outlineConnect=0;" parent="1" vertex="1">
          <mxGeometry x="350" y="40" width="100" height="400" as="geometry" />
        </mxCell>
        <mxCell id="G49e3AccV7yoDLofjGXc-42" value="" style="html=1;points=[];perimeter=orthogonalPerimeter;" parent="G49e3AccV7yoDLofjGXc-16" vertex="1">
          <mxGeometry x="45" y="220" width="10" height="80" as="geometry" />
        </mxCell>
        <mxCell id="G49e3AccV7yoDLofjGXc-17" value="配置侧" style="shape=umlLifeline;perimeter=lifelinePerimeter;whiteSpace=wrap;html=1;container=1;collapsible=0;recursiveResize=0;outlineConnect=0;" parent="1" vertex="1">
          <mxGeometry x="550" y="40" width="100" height="400" as="geometry" />
        </mxCell>
        <mxCell id="G49e3AccV7yoDLofjGXc-35" value="渲染页面" style="html=1;verticalAlign=bottom;endArrow=open;dashed=1;endSize=8;exitX=0;exitY=0.833;exitDx=0;exitDy=0;exitPerimeter=0;" parent="1" source="G49e3AccV7yoDLofjGXc-33" target="G49e3AccV7yoDLofjGXc-14" edge="1">
          <mxGeometry relative="1" as="geometry">
            <mxPoint x="125" y="176" as="targetPoint" />
          </mxGeometry>
        </mxCell>
        <mxCell id="G49e3AccV7yoDLofjGXc-34" value="1.访问页面" style="html=1;verticalAlign=bottom;endArrow=block;" parent="1" source="G49e3AccV7yoDLofjGXc-14" edge="1">
          <mxGeometry relative="1" as="geometry">
            <mxPoint x="125" y="100" as="sourcePoint" />
            <mxPoint x="190" y="110" as="targetPoint" />
          </mxGeometry>
        </mxCell>
        <mxCell id="G49e3AccV7yoDLofjGXc-36" value="" style="html=1;points=[];perimeter=orthogonalPerimeter;" parent="1" vertex="1">
          <mxGeometry x="595" y="110" width="10" height="90" as="geometry" />
        </mxCell>
        <mxCell id="G49e3AccV7yoDLofjGXc-38" value="返回页面布局" style="html=1;verticalAlign=bottom;endArrow=open;dashed=1;endSize=8;" parent="1" edge="1">
          <mxGeometry relative="1" as="geometry">
            <mxPoint x="210" y="180" as="targetPoint" />
            <mxPoint x="590" y="180" as="sourcePoint" />
          </mxGeometry>
        </mxCell>
        <mxCell id="G49e3AccV7yoDLofjGXc-44" value="调用对应组件" style="html=1;verticalAlign=bottom;endArrow=block;" parent="1" edge="1">
          <mxGeometry width="80" relative="1" as="geometry">
            <mxPoint x="210" y="280" as="sourcePoint" />
            <mxPoint x="390" y="280" as="targetPoint" />
          </mxGeometry>
        </mxCell>
        <mxCell id="G49e3AccV7yoDLofjGXc-48" value="解析布局&lt;br&gt;根据组件类型&lt;br&gt;调用渲染器" style="edgeStyle=orthogonalEdgeStyle;html=1;align=left;spacingLeft=2;endArrow=block;rounded=0;" parent="1" edge="1">
          <mxGeometry relative="1" as="geometry">
            <mxPoint x="185" y="180" as="sourcePoint" />
            <Array as="points">
              <mxPoint x="185" y="180" />
              <mxPoint x="120" y="180" />
              <mxPoint x="120" y="280" />
            </Array>
            <mxPoint x="185" y="280" as="targetPoint" />
          </mxGeometry>
        </mxCell>
        <mxCell id="A-odfrlSnA0EbJWILc02-1" value="渲染组件" style="html=1;verticalAlign=bottom;endArrow=open;dashed=1;endSize=8;" edge="1" parent="1">
          <mxGeometry relative="1" as="geometry">
            <mxPoint x="390" y="329.5" as="sourcePoint" />
            <mxPoint x="210" y="330" as="targetPoint" />
          </mxGeometry>
        </mxCell>
      </root>
    </mxGraphModel>
  </diagram>
</mxfile>
